# xmcd
# 
# Track frame offsets:
#     150
#     20967
#     36295
#     50908
#     67146
#     80736
#     105069
#     118823
#     141937
#     155940
#     174411
# 
# Disc length: 2582
# 
# Revision: 0
# Processed by: cddbd v1.5.2PL0 Copyright (c) Steve Scherf et al.
# Submitted via: fre:ac v1.0.17
# 
DISCID=a50a140b
DTITLE=Billy Wright - Power Of A Woman
DYEAR=2011
DGENRE=Country
TTITLE0=Wrong Side Of Cheating
TTITLE1=She Turned Me On
TTITLE2=You Took The Love
TTITLE3=My Money's Almost Done
TTITLE4=There's A Cabin On The Hillside
TTITLE5=My Next Song
TTITLE6=Did You Know
TTITLE7=Power Of A Woman
TTITLE8=Day And Night
TTITLE9=Closest Thing To Heaven
TTITLE10=I Saw Mama
EXTD=
EXTT0=
EXTT1=
EXTT2=
EXTT3=
EXTT4=
EXTT5=
EXTT6=
EXTT7=
EXTT8=
EXTT9=
EXTT10=
PLAYORDER=
